<mxfile host="app.diagrams.net" modified="2023-05-10T12:05:17.765Z" agent="Mozilla/5.0 (X11; Linux x86_64) AppleWebKit/537.36 (KHTML, like Gecko) Chrome/113.0.0.0 Safari/537.36" etag="4dwodQwOCYBtzkBtgaQd" version="21.1.8" type="github">
  <diagram name="Page-1" id="6sEcnvpKTfkXw398GDHD">
    <mxGraphModel dx="1380" dy="775" grid="1" gridSize="10" guides="1" tooltips="1" connect="1" arrows="1" fold="1" page="1" pageScale="1" pageWidth="827" pageHeight="1169" math="0" shadow="0">
      <root>
        <mxCell id="0" />
        <mxCell id="1" parent="0" />
        <mxCell id="Wl19uEfLJzKAgExFRvO9-12" value="" style="edgeStyle=orthogonalEdgeStyle;rounded=0;orthogonalLoop=1;jettySize=auto;html=1;dashed=1;" edge="1" parent="1" source="Wl19uEfLJzKAgExFRvO9-1" target="Wl19uEfLJzKAgExFRvO9-5">
          <mxGeometry relative="1" as="geometry" />
        </mxCell>
        <mxCell id="Wl19uEfLJzKAgExFRvO9-14" value="" style="edgeStyle=orthogonalEdgeStyle;rounded=0;orthogonalLoop=1;jettySize=auto;html=1;dashed=1;" edge="1" parent="1" source="Wl19uEfLJzKAgExFRvO9-1" target="Wl19uEfLJzKAgExFRvO9-2">
          <mxGeometry relative="1" as="geometry" />
        </mxCell>
        <mxCell id="Wl19uEfLJzKAgExFRvO9-1" value="&lt;font style=&quot;font-size: 20px;&quot;&gt;ui&lt;/font&gt;" style="rounded=0;whiteSpace=wrap;html=1;" vertex="1" parent="1">
          <mxGeometry x="40" y="120" width="120" height="60" as="geometry" />
        </mxCell>
        <mxCell id="Wl19uEfLJzKAgExFRvO9-15" value="" style="edgeStyle=orthogonalEdgeStyle;rounded=0;orthogonalLoop=1;jettySize=auto;html=1;dashed=1;" edge="1" parent="1" source="Wl19uEfLJzKAgExFRvO9-2" target="Wl19uEfLJzKAgExFRvO9-3">
          <mxGeometry relative="1" as="geometry" />
        </mxCell>
        <mxCell id="Wl19uEfLJzKAgExFRvO9-2" value="&lt;font style=&quot;font-size: 20px;&quot;&gt;services&lt;/font&gt;" style="rounded=0;whiteSpace=wrap;html=1;" vertex="1" parent="1">
          <mxGeometry x="40" y="240" width="120" height="60" as="geometry" />
        </mxCell>
        <mxCell id="Wl19uEfLJzKAgExFRvO9-20" value="" style="edgeStyle=orthogonalEdgeStyle;rounded=0;orthogonalLoop=1;jettySize=auto;html=1;entryX=0;entryY=0.5;entryDx=0;entryDy=0;dashed=1;" edge="1" parent="1" source="Wl19uEfLJzKAgExFRvO9-3" target="Wl19uEfLJzKAgExFRvO9-4">
          <mxGeometry relative="1" as="geometry" />
        </mxCell>
        <mxCell id="Wl19uEfLJzKAgExFRvO9-3" value="&lt;font style=&quot;font-size: 20px;&quot;&gt;repositories&lt;/font&gt;" style="rounded=0;whiteSpace=wrap;html=1;" vertex="1" parent="1">
          <mxGeometry x="40" y="360" width="120" height="60" as="geometry" />
        </mxCell>
        <mxCell id="Wl19uEfLJzKAgExFRvO9-4" value="&lt;font style=&quot;font-size: 20px;&quot;&gt;entities&lt;/font&gt;" style="rounded=0;whiteSpace=wrap;html=1;" vertex="1" parent="1">
          <mxGeometry x="240" y="310" width="120" height="60" as="geometry" />
        </mxCell>
        <mxCell id="Wl19uEfLJzKAgExFRvO9-5" value="&lt;font style=&quot;font-size: 20px;&quot;&gt;errors&lt;br&gt;&lt;/font&gt;" style="rounded=0;whiteSpace=wrap;html=1;" vertex="1" parent="1">
          <mxGeometry x="240" y="170" width="120" height="60" as="geometry" />
        </mxCell>
        <mxCell id="Wl19uEfLJzKAgExFRvO9-18" value="" style="edgeStyle=orthogonalEdgeStyle;rounded=0;orthogonalLoop=1;jettySize=auto;html=1;dashed=1;" edge="1" parent="1">
          <mxGeometry relative="1" as="geometry">
            <mxPoint x="160" y="260" as="sourcePoint" />
            <mxPoint x="280" y="230" as="targetPoint" />
          </mxGeometry>
        </mxCell>
        <mxCell id="Wl19uEfLJzKAgExFRvO9-21" value="" style="edgeStyle=orthogonalEdgeStyle;rounded=0;orthogonalLoop=1;jettySize=auto;html=1;dashed=1;entryX=0.333;entryY=0.033;entryDx=0;entryDy=0;entryPerimeter=0;exitX=1;exitY=0.75;exitDx=0;exitDy=0;" edge="1" parent="1" source="Wl19uEfLJzKAgExFRvO9-2" target="Wl19uEfLJzKAgExFRvO9-4">
          <mxGeometry relative="1" as="geometry">
            <mxPoint x="170" y="270" as="sourcePoint" />
            <mxPoint x="280" y="240" as="targetPoint" />
          </mxGeometry>
        </mxCell>
      </root>
    </mxGraphModel>
  </diagram>
</mxfile>
